<svg width="120" height="120" fill="none" xmlns="http://www.w3.org/2000/svg"><rect x=".5" y=".5" width="119" height="119" rx="59.5" stroke="#14B8A6"/><path d="M69.7 45.995a.879.879 0 00.879-.88V34.048a.879.879 0 00-.88-.878H46.28a.879.879 0 00-.88.878v11.069a.88.88 0 00.88.879H69.7zM47.157 34.926h21.664v9.311H47.157v-9.31z" fill="#14B8A6"/><path d="M77.9 34.83a2.603 2.603 0 00-2.6 2.6v2.283h-1.553V32.08c0-1.147-.933-2.08-2.08-2.08H44.31c-1.147 0-2.08.933-2.08 2.08v1.968a.879.879 0 101.758 0V32.08c0-.178.145-.322.322-.322h27.357c.178 0 .322.144.322.322v15.004a.322.322 0 01-.322.322H44.31a.322.322 0 01-.322-.322V38.16a.879.879 0 10-1.758 0v8.924c0 1.147.933 2.08 2.08 2.08h11.23v1.784h-8.386a2.237 2.237 0 00-2.235 2.235v3.964c0 .51.174.98.462 1.356a2.22 2.22 0 00-.462 1.356v3.964a2.237 2.237 0 002.235 2.235h8.385v2.958h-6.997a2.452 2.452 0 00-2.45 2.45c0 1.35 1.1 2.449 2.45 2.449h6.997v2.958h-8.668a1.954 1.954 0 00-1.952 1.951v1.817h-.69c-.258 0-.507.04-.742.112V69.895a.879.879 0 10-1.758 0v14.014a3.114 3.114 0 00-2.23 2.982A3.112 3.112 0 0042.61 90a3.113 3.113 0 002.799-4.46h3.623a.879.879 0 100-1.758h-5.544v-.641c0-.41.333-.742.742-.742h27.52c.409 0 .741.332.741.742v.64H53.145a.879.879 0 100 1.759H70.57a3.112 3.112 0 002.8 4.46 3.113 3.113 0 003.108-3.11 3.114 3.114 0 00-2.23-2.98V69.894a.879.879 0 10-1.758 0v10.859a2.492 2.492 0 00-.742-.113h-.69v-1.817a1.954 1.954 0 00-1.951-1.951h-8.669v-2.958h6.998a2.452 2.452 0 002.449-2.45 2.452 2.452 0 00-2.45-2.449h-6.997v-2.958h8.386a2.238 2.238 0 002.235-2.235V62.72h4.532a3.192 3.192 0 003.189-3.188V43.04a2.604 2.604 0 001.72-2.447V37.43c0-1.433-1.166-2.6-2.6-2.6zM43.96 86.891a1.353 1.353 0 01-2.702 0 1.352 1.352 0 012.702 0zm30.76 0c0 .745-.606 1.351-1.35 1.351a1.353 1.353 0 01-1.352-1.35c0-.746.606-1.352 1.351-1.352s1.351.606 1.351 1.351zm2.338-49.46a.843.843 0 011.685 0v3.16a.843.843 0 01-1.685 0v-3.16zm-19.76 11.733h1.382v1.784h-1.383v-1.784zm-10.621 4.02c0-.264.214-.478.477-.478h21.67c.263 0 .477.214.477.477v3.964a.478.478 0 01-.477.477h-21.67a.478.478 0 01-.477-.477v-3.964zM69.3 78.823v1.817H46.677v-1.816c0-.107.087-.194.194-.194h22.236c.107 0 .194.087.194.194zm-10.62-1.951h-1.384v-2.958h1.383v2.958zm9.446-5.407c0 .38-.31.691-.691.691H48.542a.692.692 0 010-1.383h18.894c.381 0 .691.31.691.692zm-9.447-2.45h-1.383v-2.958h1.383v2.958zm10.62-5.193a.478.478 0 01-.476.477h-21.67a.478.478 0 01-.477-.477V59.86c0-.263.214-.477.477-.477h21.67c.263 0 .477.214.477.477v1.103h-5.223a.879.879 0 100 1.758H69.3v1.103zm6.291-2.86h-4.53v-1.104c0-.51-.174-.98-.463-1.356a2.22 2.22 0 00.463-1.356v-3.964a2.237 2.237 0 00-2.235-2.235h-8.386v-1.784h11.23a2.082 2.082 0 002.079-2.08V41.47h1.707c.262.728.84 1.306 1.568 1.569v16.493c0 .789-.642 1.43-1.43 1.43z" fill="#14B8A6"/><path d="M50.394 56.044a.879.879 0 100-1.758.879.879 0 000 1.758zm3.071 0a.879.879 0 100-1.758.879.879 0 000 1.758zm-3.071 6.676a.879.879 0 100-1.758.879.879 0 000 1.758zm3.071 0a.879.879 0 100-1.758.879.879 0 000 1.758z" fill="#14B8A6"/></svg>