<svg width="120" height="120" fill="none" xmlns="http://www.w3.org/2000/svg"><rect x=".5" y=".5" width="119" height="119" rx="59.5" stroke="#14B8A6"/><path d="M79.888 83.915v-2.147a.879.879 0 00-.879-.879H41.87V59.297h23.368v9.051a2.44 2.44 0 002.437 2.437h6.614a2.44 2.44 0 002.437-2.437v-9.05h1.405v18.36a.879.879 0 101.758 0V40.584a4.873 4.873 0 00-4.867-4.868h-1.085l-1.477-3.722A3.141 3.141 0 0069.525 30h-13.29a.879.879 0 100 1.758h13.29c.577 0 1.087.347 1.3.883l1.22 3.074h-24.09l1.22-3.074a1.392 1.392 0 011.3-.883h1.647a.879.879 0 100-1.758h-1.647a3.141 3.141 0 00-2.935 1.993l-1.477 3.722H44.98a4.873 4.873 0 00-4.868 4.867v43.333a3.111 3.111 0 00-2.226 2.979A3.11 3.11 0 0040.99 90a3.11 3.11 0 003.106-3.106 3.111 3.111 0 00-2.227-2.979v-1.268h6.557l2.04 3.169a3.097 3.097 0 002.615 1.426h13.838c1.062 0 2.04-.533 2.615-1.426l2.04-3.169h6.556v1.268a3.11 3.11 0 00-2.227 2.979A3.11 3.11 0 0079.01 90a3.11 3.11 0 003.106-3.106 3.111 3.111 0 00-2.227-2.979zm-5.6-35.518a.68.68 0 01.679.679v.727h-7.972v-.727a.68.68 0 01.679-.68h6.614zm.679 19.951a.68.68 0 01-.68.68h-6.613a.68.68 0 01-.679-.68V51.561h7.972v16.787zM44.979 37.473h30.042a3.113 3.113 0 013.11 3.11v16.956h-1.406v-8.463a2.44 2.44 0 00-2.437-2.437h-2.315v-2.2a.879.879 0 10-1.758 0v2.2h-2.541a2.44 2.44 0 00-2.437 2.437v8.463H41.87V40.583a3.113 3.113 0 013.11-3.11zm-2.64 49.421a1.35 1.35 0 01-1.349 1.348 1.35 1.35 0 01-1.348-1.348 1.35 1.35 0 011.348-1.348 1.35 1.35 0 011.348 1.348zm25.716-2.03c-.25.388-.675.62-1.136.62H53.08c-.462 0-.887-.232-1.137-.62l-1.427-2.217h18.966l-1.428 2.217zm10.954 3.378a1.35 1.35 0 01-1.348-1.348 1.35 1.35 0 011.348-1.348 1.35 1.35 0 011.348 1.348 1.35 1.35 0 01-1.348 1.348z" fill="#14B8A6"/><path d="M47.892 54.858h13.525a2.114 2.114 0 002.112-2.11v-10.46a2.114 2.114 0 00-2.112-2.111H47.892a2.114 2.114 0 00-2.111 2.111v10.46c0 1.163.947 2.11 2.111 2.11zm-.353-12.57c0-.195.158-.353.353-.353h13.525c.195 0 .354.158.354.353v10.46a.354.354 0 01-.354.353H47.892a.354.354 0 01-.353-.354V42.288z" fill="#14B8A6"/><path d="M59.367 51.561a.879.879 0 00.879-.879V44.44a.879.879 0 10-1.758 0v6.243c0 .486.393.88.879.88z" fill="#14B8A6"/></svg>