<svg width="40" height="40" viewBox="0 0 40 40" fill="none" xmlns="http://www.w3.org/2000/svg">
<mask id="mask0_523_4046" style="mask-type:luminance" maskUnits="userSpaceOnUse" x="0" y="0" width="40" height="40">
<path fill-rule="evenodd" clip-rule="evenodd" d="M9.94122 0.01818L11.6526 0L29.454 0.00727292C29.7243 0.00969701 29.8927 0.0133318 30.06 0.01818C30.9424 0.0412089 31.8332 0.0921156 32.7059 0.24847C33.5801 0.395961 34.4276 0.67207 35.2209 1.06781C36.0112 1.46537 36.736 1.98412 37.3626 2.6059C37.9895 3.22473 38.5144 3.939 38.9176 4.72214C39.3297 5.51845 39.5879 6.33416 39.7467 7.20926C39.9043 8.07224 39.9564 8.95219 39.9794 9.82486C39.9915 10.2248 39.9964 10.6248 39.9976 11.026L40 11.7399V27.5414C40 28.0165 40 28.4928 39.9976 28.9692C39.9952 29.3691 39.9915 29.7691 39.9794 30.1691C39.9552 31.0418 39.9043 31.9229 39.7467 32.7847C39.5971 33.6507 39.3176 34.4892 38.9176 35.2718C38.5141 36.0552 37.9893 36.7698 37.3626 37.3893C36.7335 38.0108 36.0108 38.5298 35.2209 38.9273C34.4276 39.3232 33.5801 39.5993 32.7059 39.7467C31.8332 39.9018 30.9424 39.9527 30.06 39.977L27.4008 39.9976L10.546 39.9879C10.3444 39.9857 10.1428 39.9816 9.94122 39.9758C9.05884 39.9539 8.16799 39.9018 7.29531 39.7467C6.42153 39.5992 5.57441 39.3231 4.78153 38.9273C3.19441 38.1286 1.89987 36.8493 1.08236 35.2718C0.682963 34.489 0.403495 33.6506 0.253318 32.7847C0.0957513 31.9229 0.0448453 31.0418 0.0218164 30.1703C0.00969596 29.7703 0.00606055 29.3691 0.00363646 28.9692L0 28.2528V12.4538C0 11.9787 3.14373e-07 11.5023 0.00363646 11.0272C0.00606055 10.6272 0.010908 10.2273 0.0218164 9.82607C0.0460574 8.9534 0.0969634 8.07345 0.253318 7.21047C0.403405 6.34455 0.682878 5.50614 1.08236 4.72335C1.89868 3.14536 3.19302 1.86587 4.78032 1.06781C5.57361 0.672054 6.42113 0.395944 7.29531 0.24847C8.16799 0.0933276 9.05884 0.0424209 9.94122 0.01818Z" fill="white"/>
</mask>
<g mask="url(#mask0_523_4046)">
<path d="M-26.665 -21.8252H110.091V114.931H-26.665V-21.8252Z" fill="#19AA1E"/>
<path fill-rule="evenodd" clip-rule="evenodd" d="M-26.665 -21.8252H110.091V23.0434L-26.665 1.67817V-21.8252Z" fill="#FFB919"/>
<path fill-rule="evenodd" clip-rule="evenodd" d="M-26.665 -1.02441L21.071 6.43435C27.0131 2.67182 34.0824 0.608229 41.711 0.608229C52.2776 0.608229 61.7751 4.56551 68.6869 11.5104C69.5571 12.3889 70.3775 13.3047 71.1524 14.2577L110.091 20.3408V25.7484L75.1055 20.2786C77.724 25.2844 79.0957 30.8481 79.1043 36.4973C79.1043 43.8234 77.4675 51.1289 74.0779 58.4633L73.9784 58.6871L72.5364 61.77H69.1385C62.1107 61.77 57.4531 63.8709 54.4033 67.5961C52.0124 70.5175 50.6284 74.4623 50.1643 78.7636L50.1477 78.8962L50.0814 79.584L50.0524 79.8824L49.9944 80.4666C49.8162 82.3893 49.7002 84.0178 49.638 85.3438L110.091 75.8961V81.3037L-26.665 102.673V97.2654L33.8545 87.8094L33.8296 86.5952L33.8213 86.2555L33.813 86.0773L33.8047 85.8079C33.7509 84.3369 33.6141 82.4515 33.3987 80.1642L33.3572 79.7291L33.2826 78.979C32.8517 74.653 31.4884 70.6625 29.0975 67.6956C26.0849 63.9455 21.4729 61.8115 14.499 61.77H10.8857L9.44777 58.6871C5.99188 51.278 4.3178 43.898 4.3178 36.4973C4.3178 27.1904 8.09277 18.1902 14.7393 11.5104L15.3195 10.9427L-26.665 4.37904V-1.02441Z" fill="white"/>
<path fill-rule="evenodd" clip-rule="evenodd" d="M41.7111 5.9502C60.8055 5.9502 73.763 20.644 73.763 36.4979C73.763 42.8628 72.3749 49.4845 69.1345 56.4294C50.3508 56.4294 45.714 69.88 44.8355 78.3498L44.7775 78.9092C44.4833 81.9342 44.3092 84.3583 44.2637 86.1815L39.1751 86.9771V86.8114C39.1043 84.1185 38.9218 81.4296 38.6282 78.7518L38.6157 78.6026C37.8036 70.1535 33.2661 56.4294 14.2919 56.4294C11.0473 49.4845 9.65918 42.8628 9.65918 36.4979C9.65918 20.644 22.6208 5.9502 41.7111 5.9502Z" fill="#0073FA"/>
</g>
</svg>
