<svg width="120" height="120" viewBox="0 0 120 120" fill="none" xmlns="http://www.w3.org/2000/svg">
<rect x="0.5" y="0.5" width="119" height="119" rx="59.5" stroke="#14B8A6"/>
<path d="M60.0017 31.8735C52.7467 31.8735 46.8731 37.7399 46.8731 44.995V59.6946C46.8447 60.9726 48.7764 60.9726 48.7481 59.6946V44.995C48.7481 38.7462 53.753 33.7504 60.0017 33.7504C66.2504 33.7504 71.2462 38.7462 71.2462 44.995V59.6946C71.2462 60.9458 73.1231 60.9458 73.1231 59.6946V44.995C73.1231 37.7399 67.2567 31.8735 60.0017 31.8735ZM59.0605 83.5258V86.2486H47.8142V81.5446C47.8142 80.2943 45.9392 80.2943 45.9392 81.5446V86.2486H41.2499V74.061C41.2499 68.9732 44.8675 64.7975 49.6892 63.9244V71.4243C48.6032 71.8139 47.8142 72.8474 47.8142 74.061C47.8142 75.6033 49.0809 76.8717 50.6231 76.8717C52.1652 76.8717 53.441 75.6032 53.441 74.061C53.441 72.8503 52.65 71.8197 51.5661 71.428V63.7486C52.8337 63.7628 52.83 61.8533 51.5625 61.8736C44.8269 61.8736 39.375 67.3254 39.375 74.061V87.186C39.3751 87.7038 39.7948 88.1235 40.3125 88.1235H79.6875C80.2052 88.1235 80.625 87.7038 80.625 87.186V74.061C80.625 67.3254 75.1732 61.8736 68.4375 61.8736C67.1697 61.8558 67.1697 63.7666 68.4375 63.7486V70.4045C66.3022 70.8398 64.6857 72.7342 64.6857 74.9949V75.9379C64.6857 77.1891 66.5625 77.1891 66.5625 75.9379V74.9949C66.5626 73.4205 67.7971 72.1861 69.3714 72.1861C70.9457 72.1861 72.1894 73.4205 72.1894 74.9949V75.9379C72.1611 77.216 74.0928 77.216 74.0644 75.9379V74.9949C74.0644 72.7368 72.4455 70.8443 70.3126 70.4062V63.9244C75.1334 64.7982 78.7501 68.9738 78.7501 74.061V86.2486H74.0644V81.5446C74.0644 80.2943 72.1894 80.2943 72.1894 81.5446V86.2486H60.9358V83.5587L65.5793 63.1058C65.6112 63.0102 65.6282 62.9102 65.6286 62.8092V57.8344C67.3484 56.2898 68.4374 54.0558 68.4374 51.563V45.9361C68.4393 45.4183 68.0215 44.9968 67.5035 44.995H65.6286C63.5394 44.995 62.763 42.8288 62.763 42.8288C62.6315 42.4288 62.2497 42.1665 61.8291 42.1861C61.4416 42.2038 61.1043 42.4604 60.9832 42.8288C60.9832 42.8288 60.2263 44.995 58.1267 44.995H52.4999C51.982 44.9968 51.5641 45.4183 51.5661 45.9361V51.563C51.5661 54.0567 52.654 56.2916 54.3749 57.8362V62.8092C54.3752 62.8787 54.382 62.9482 54.3962 63.0162L59.0605 83.5258ZM61.8767 45.0004C62.5763 45.9628 63.8307 46.8699 65.6286 46.8699H66.5624V51.563C66.5624 55.2148 63.6536 58.1236 60.0017 58.1236C56.3499 58.1236 53.441 55.2148 53.441 51.563V46.8699H58.1249C59.9258 46.8699 61.1777 45.9637 61.8767 45.0004ZM56.2499 59.1105C57.3811 59.6742 58.6523 59.9985 60.0017 59.9985C61.3506 59.9985 62.6209 59.6737 63.7517 59.1105V62.5803C63.7517 62.5803 62.9452 64.6843 60.0017 64.6843C57.0582 64.6843 56.2499 62.5803 56.2499 62.5803V59.1105ZM63.0321 65.8653L60.0017 79.21L56.9713 65.8671C57.767 66.2726 58.7696 66.5592 60.0017 66.5592C61.2364 66.5592 62.2377 66.2719 63.0321 65.8653ZM50.6231 73.1199C51.1519 73.1199 51.566 73.5322 51.5661 74.061C51.5661 74.5899 51.1519 74.9949 50.6231 74.9949C50.0942 74.9949 49.6892 74.5899 49.6892 74.061C49.6892 73.5322 50.0942 73.1199 50.6231 73.1199Z" fill="#14B8A6"/>
</svg>
