<svg width="120" height="120" viewBox="0 0 120 120" fill="none" xmlns="http://www.w3.org/2000/svg">
<rect x="0.5" y="0.5" width="119" height="119" rx="59.5" stroke="#14B8A6"/>
<path d="M69.6996 45.9948C70.1851 45.9948 70.5785 45.6014 70.5785 45.1159V34.0474C70.5785 33.5619 70.1851 33.1685 69.6996 33.1685H46.2781C45.7927 33.1685 45.3992 33.5619 45.3992 34.0474V45.1159C45.3992 45.6014 45.7927 45.9948 46.2781 45.9948H69.6996ZM47.157 34.9262H68.8208V44.237H47.157V34.9262Z" fill="#14B8A6"/>
<path d="M77.9006 34.8303C76.4669 34.8303 75.3004 35.9966 75.3004 37.4304V39.7129H73.747V32.0797C73.747 30.9329 72.8142 30 71.6674 30H44.3101C43.1634 30 42.2305 30.9329 42.2305 32.0797V34.0475C42.2305 34.533 42.624 34.9264 43.1094 34.9264C43.5948 34.9264 43.9883 34.533 43.9883 34.0475V32.0797C43.9883 31.9022 44.1327 31.7578 44.3101 31.7578H71.6674C71.845 31.7578 71.9892 31.9022 71.9892 32.0797V47.0839C71.9892 47.2614 71.845 47.4058 71.6674 47.4058H44.3101C44.1327 47.4058 43.9883 47.2614 43.9883 47.0839V38.1599C43.9883 37.6744 43.5948 37.281 43.1094 37.281C42.624 37.281 42.2305 37.6744 42.2305 38.1599V47.0839C42.2305 48.2306 43.1634 49.1636 44.3101 49.1636H55.5395V50.9482H47.1539C45.9215 50.9482 44.9189 51.9508 44.9189 53.1831V57.147C44.9189 57.6572 45.0926 58.1265 45.3814 58.5031C45.0926 58.8797 44.9189 59.3489 44.9189 59.859V63.823C44.9189 65.0553 45.9215 66.0578 47.1539 66.0578H55.5395V69.016H48.5419C47.1914 69.016 46.0926 70.1147 46.0926 71.4653C46.0926 72.8158 47.1914 73.9146 48.5419 73.9146H55.5395V76.8727H46.8706C45.7944 76.8727 44.9189 77.7482 44.9189 78.8243V80.6409H44.229C43.9709 80.6409 43.7216 80.6803 43.4871 80.7533V69.8947C43.4871 69.4092 43.0936 69.0158 42.6082 69.0158C42.1228 69.0158 41.7293 69.4092 41.7293 69.8947V83.9091C40.4418 84.2893 39.4993 85.4817 39.4993 86.8907C39.4993 88.605 40.8939 89.9997 42.6082 89.9997C44.3225 89.9997 45.7172 88.605 45.7172 86.8907C45.7172 86.4068 45.606 85.9484 45.4078 85.5397H49.0311C49.5165 85.5397 49.91 85.1463 49.91 84.6608C49.91 84.1753 49.5165 83.7819 49.0311 83.7819H43.4872V83.1405C43.4872 82.7315 43.82 82.3987 44.2291 82.3987H71.7485C72.1575 82.3987 72.4903 82.7315 72.4903 83.1405V83.7819H53.1451C52.6597 83.7819 52.2662 84.1753 52.2662 84.6608C52.2662 85.1463 52.6597 85.5397 53.1451 85.5397H70.5696C70.3716 85.9484 70.2603 86.4068 70.2603 86.8907C70.2603 88.605 71.6549 89.9997 73.3691 89.9997C75.0834 89.9997 76.4781 88.605 76.4781 86.8907C76.4781 85.4818 75.5355 84.2894 74.248 83.9091V69.895C74.248 69.4095 73.8546 69.0161 73.3691 69.0161C72.8836 69.0161 72.4902 69.4095 72.4902 69.895V80.7535C72.2557 80.6805 72.0066 80.6412 71.7484 80.6412H71.0585V78.8245C71.0585 77.7483 70.1829 76.8729 69.1068 76.8729H60.438V73.9148H67.4356C68.7862 73.9148 69.8849 72.8161 69.8849 71.4655C69.8849 70.1149 68.7862 69.0162 67.4356 69.0162H60.438V66.0581H68.8238C70.0561 66.0581 71.0587 65.0554 71.0587 63.8232V62.7201H75.5914C77.3493 62.7201 78.7795 61.29 78.7795 59.5321V43.0385C79.7819 42.6773 80.5007 41.717 80.5007 40.5916V37.4303C80.5006 35.9966 79.3342 34.8303 77.9006 34.8303ZM43.9596 86.8911C43.9596 87.636 43.3535 88.2422 42.6085 88.2422C41.8635 88.2422 41.2573 87.636 41.2573 86.8911C41.2573 86.1461 41.8634 85.54 42.6085 85.54C43.3534 85.5399 43.9596 86.146 43.9596 86.8911ZM74.7204 86.8911C74.7204 87.636 74.1142 88.2422 73.3692 88.2422C72.6243 88.2422 72.0182 87.636 72.0182 86.8911C72.0182 86.1461 72.6243 85.54 73.3692 85.54C74.1142 85.54 74.7204 86.146 74.7204 86.8911ZM77.0582 37.4303C77.0582 36.9659 77.4362 36.588 77.9006 36.588C78.365 36.588 78.7429 36.9659 78.7429 37.4303V40.5916C78.7429 41.056 78.365 41.434 77.9006 41.434C77.4362 41.434 77.0582 41.056 77.0582 40.5916V37.4303ZM57.2973 49.1636H58.6804V50.9482H57.2973V49.1636ZM46.6768 53.1831C46.6768 52.92 46.8909 52.706 47.154 52.706H68.8238C69.0869 52.706 69.3009 52.92 69.3009 53.1831V57.147C69.3009 57.4101 69.0869 57.6242 68.8238 57.6242H47.1539C46.8908 57.6242 46.6767 57.4101 46.6767 57.147L46.6768 53.1831ZM69.3009 78.8247V80.6413H46.6768V78.8247C46.6768 78.7178 46.7638 78.6308 46.8707 78.6308H69.1069C69.2139 78.6307 69.3009 78.7177 69.3009 78.8247ZM58.6804 76.8729H57.2973V73.9148H58.6804V76.8729ZM68.1273 71.4655C68.1273 71.8468 67.8171 72.157 67.4357 72.157H48.5419C48.1606 72.157 47.8504 71.8468 47.8504 71.4655C47.8504 71.0842 48.1606 70.774 48.5419 70.774H67.4357C67.8171 70.7739 68.1273 71.0842 68.1273 71.4655ZM58.6804 69.0161H57.2973V66.0579H58.6804V69.0161ZM69.3009 63.8231C69.3009 64.0862 69.0869 64.3001 68.8238 64.3001H47.1539C46.8908 64.3001 46.6767 64.0862 46.6767 63.8231V59.8591C46.6767 59.5961 46.8908 59.3821 47.1539 59.3821H68.8238C69.0869 59.3821 69.3009 59.5961 69.3009 59.8591V60.9622H64.0782C63.5927 60.9622 63.1993 61.3556 63.1993 61.8411C63.1993 62.3266 63.5927 62.72 64.0782 62.72H69.3009V63.8231ZM75.5914 60.9622H71.0587V59.8591C71.0587 59.349 70.885 58.8797 70.5961 58.5032C70.885 58.1265 71.0587 57.6572 71.0587 57.1471V53.1832C71.0587 51.9508 70.056 50.9483 68.8238 50.9483H60.4381V49.1637H71.6674C72.8141 49.1637 73.747 48.2308 73.747 47.084V41.4705H75.4536C75.7159 42.1983 76.2938 42.7762 77.0216 43.0385V59.532C77.0217 60.3205 76.38 60.9622 75.5914 60.9622Z" fill="#14B8A6"/>
<path d="M50.3943 56.0439C50.8797 56.0439 51.2732 55.6504 51.2732 55.165C51.2732 54.6796 50.8797 54.2861 50.3943 54.2861C49.9089 54.2861 49.5154 54.6796 49.5154 55.165C49.5154 55.6504 49.9089 56.0439 50.3943 56.0439Z" fill="#14B8A6"/>
<path d="M53.4646 56.0439C53.95 56.0439 54.3435 55.6504 54.3435 55.165C54.3435 54.6796 53.95 54.2861 53.4646 54.2861C52.9792 54.2861 52.5857 54.6796 52.5857 55.165C52.5857 55.6504 52.9792 56.0439 53.4646 56.0439Z" fill="#14B8A6"/>
<path d="M50.3943 62.7197C50.8797 62.7197 51.2732 62.3262 51.2732 61.8408C51.2732 61.3554 50.8797 60.9619 50.3943 60.9619C49.9089 60.9619 49.5154 61.3554 49.5154 61.8408C49.5154 62.3262 49.9089 62.7197 50.3943 62.7197Z" fill="#14B8A6"/>
<path d="M53.4646 62.7197C53.95 62.7197 54.3435 62.3262 54.3435 61.8408C54.3435 61.3554 53.95 60.9619 53.4646 60.9619C52.9792 60.9619 52.5857 61.3554 52.5857 61.8408C52.5857 62.3262 52.9792 62.7197 53.4646 62.7197Z" fill="#14B8A6"/>
</svg>
