<svg width="120" height="120" viewBox="0 0 120 120" fill="none" xmlns="http://www.w3.org/2000/svg">
<rect x="0.5" y="0.5" width="119" height="119" rx="59.5" stroke="#14B8A6"/>
<path d="M79.8881 83.9154V81.7683C79.8881 81.2828 79.4947 80.8894 79.0092 80.8894H41.8693V59.2972H65.2373V68.3482C65.2373 69.692 66.3305 70.7852 67.6741 70.7852H74.2877C75.6314 70.7852 76.7246 69.692 76.7246 68.3482V59.2972H78.1304V77.6587C78.1304 78.1442 78.5238 78.5376 79.0093 78.5376C79.4948 78.5376 79.8883 78.1442 79.8883 77.6587V40.5825C79.8883 37.8985 77.7047 35.7148 75.0207 35.7148H73.9365L72.4592 31.9928C71.9789 30.7823 70.8268 30 69.5245 30H56.2359C55.7505 30 55.3569 30.3934 55.3569 30.879C55.3569 31.3645 55.7505 31.7579 56.2359 31.7579H69.5245C70.1018 31.7579 70.6124 32.1046 70.8254 32.6412L72.0452 35.7148H47.9544L49.1743 32.6412C49.3872 32.1046 49.8978 31.7579 50.4751 31.7579H52.1224C52.6078 31.7579 53.0013 31.3645 53.0013 30.879C53.0013 30.3934 52.6078 30 52.1224 30H50.4751C49.1727 30 48.0207 30.7823 47.5403 31.9928L46.0631 35.7148H44.9791C42.2951 35.7148 40.1114 37.8985 40.1114 40.5825V83.9154C38.8257 84.2956 37.8845 85.4865 37.8845 86.894C37.8845 88.6067 39.2778 90 40.9904 90C42.7029 90 44.0963 88.6067 44.0963 86.894C44.0963 85.4866 43.1551 84.2956 41.8693 83.9154V82.6473H48.426L50.4662 85.8158C51.0412 86.7089 52.0185 87.242 53.0808 87.242H66.919C67.981 87.242 68.9585 86.7089 69.5336 85.8158L71.5737 82.6473H78.1304V83.9154C76.8445 84.2955 75.9033 85.4865 75.9033 86.894C75.9033 88.6067 77.2966 90 79.0093 90C80.722 90 82.1153 88.6067 82.1153 86.894C82.1152 85.4865 81.174 84.2956 79.8881 83.9154ZM74.2876 48.3968C74.6619 48.3968 74.9666 48.7015 74.9666 49.0759V49.8035H66.9951V49.0759C66.9951 48.7015 67.2997 48.3968 67.674 48.3968H74.2876ZM74.9666 68.3484C74.9666 68.7227 74.6619 69.0274 74.2876 69.0274H67.674C67.2997 69.0274 66.9951 68.7227 66.9951 68.3484V51.5613H74.9666V68.3484ZM44.9791 37.4727H75.0206C76.7353 37.4727 78.1302 38.8677 78.1302 40.5825V57.5393H76.7245V49.0757C76.7245 47.732 75.6313 46.6388 74.2876 46.6388H71.9731V44.4391C71.9731 43.9535 71.5797 43.5601 71.0942 43.5601C70.6086 43.5601 70.2152 43.9535 70.2152 44.4391V46.6388H67.674C66.3304 46.6388 65.2372 47.732 65.2372 49.0757V57.5393H41.8693V40.5825C41.8693 38.8677 43.2643 37.4727 44.9791 37.4727ZM42.3383 86.894C42.3383 87.6374 41.7336 88.2421 40.9904 88.2421C40.2471 88.2421 39.6424 87.6374 39.6424 86.894C39.6424 86.1507 40.2471 85.5459 40.9904 85.5459C41.7336 85.5459 42.3383 86.1507 42.3383 86.894ZM68.0554 84.8641C67.8055 85.2523 67.3805 85.4841 66.9189 85.4841H53.0807C52.6189 85.4841 52.1941 85.2523 51.9441 84.8641L50.5167 82.6473H69.4829L68.0554 84.8641ZM79.0092 88.2421C78.2658 88.2421 77.6611 87.6374 77.6611 86.894C77.6611 86.1507 78.2658 85.5459 79.0092 85.5459C79.7526 85.5459 80.3573 86.1507 80.3573 86.894C80.3573 87.6374 79.7526 88.2421 79.0092 88.2421Z" fill="#14B8A6"/>
<path d="M47.8923 54.8585H61.4172C62.5814 54.8585 63.5286 53.9115 63.5286 52.7473V42.288C63.5286 41.1238 62.5814 40.1768 61.4172 40.1768H47.8923C46.728 40.1768 45.781 41.1238 45.781 42.288V52.7473C45.7809 53.9115 46.728 54.8585 47.8923 54.8585ZM47.5388 42.2881C47.5388 42.0933 47.6974 41.9348 47.8921 41.9348H61.4171C61.612 41.9348 61.7706 42.0933 61.7706 42.2881V52.7474C61.7706 52.9422 61.612 53.1008 61.4171 53.1008H47.8923C47.6974 53.1008 47.5389 52.9422 47.5389 52.7474L47.5388 42.2881Z" fill="#14B8A6"/>
<path d="M59.3667 51.5613C59.8522 51.5613 60.2457 51.1679 60.2457 50.6824V44.439C60.2457 43.9535 59.8522 43.5601 59.3667 43.5601C58.8813 43.5601 58.4878 43.9535 58.4878 44.439V50.6824C58.4878 51.1679 58.8813 51.5613 59.3667 51.5613Z" fill="#14B8A6"/>
</svg>
