<svg width="120" height="120" viewBox="0 0 120 120" fill="none" xmlns="http://www.w3.org/2000/svg">
<rect x="0.5" y="0.5" width="119" height="119" rx="59.5" stroke="#14B8A6"/>
<path d="M54 30V54H30V30H54Z" fill="white" fill-opacity="0.01"/>
<path d="M52.5 53.75C52.5 54.4404 51.9404 55 51.25 55C50.5596 55 50 54.4404 50 53.75C50 53.0596 50.5596 52.5 51.25 52.5C51.9404 52.5 52.5 53.0596 52.5 53.75Z" fill="#14B8A6"/>
<path d="M70 53.75C70 54.4404 69.4404 55 68.75 55C68.0596 55 67.5 54.4404 67.5 53.75C67.5 53.0596 68.0596 52.5 68.75 52.5C69.4404 52.5 70 53.0596 70 53.75Z" fill="#14B8A6"/>
<path d="M51.25 66.427C53.5047 68.6373 56.5932 70.0002 60 70.0002C63.4068 70.0002 66.4953 68.6373 68.75 66.427M82.5 60C82.5 72.4264 72.4264 82.5 60 82.5C47.5736 82.5 37.5 72.4264 37.5 60C37.5 47.5736 47.5736 37.5 60 37.5C72.4264 37.5 82.5 47.5736 82.5 60ZM52.5 53.75C52.5 54.4404 51.9404 55 51.25 55C50.5596 55 50 54.4404 50 53.75C50 53.0596 50.5596 52.5 51.25 52.5C51.9404 52.5 52.5 53.0596 52.5 53.75ZM70 53.75C70 54.4404 69.4404 55 68.75 55C68.0596 55 67.5 54.4404 67.5 53.75C67.5 53.0596 68.0596 52.5 68.75 52.5C69.4404 52.5 70 53.0596 70 53.75Z" stroke="#14B8A6" stroke-width="1.5" stroke-linecap="square"/>
</svg>
