<svg width="120" height="120" viewBox="0 0 120 120" fill="none" xmlns="http://www.w3.org/2000/svg">
<rect x="0.5" y="0.5" width="119" height="119" rx="59.5" stroke="#14B8A6"/>
<path d="M90 30V90H30V30H90Z" fill="white" fill-opacity="0.01"/>
<path d="M51.25 60H55M55 60H63.75C67.2018 60 70 57.2018 70 53.75C70 50.2982 67.2018 47.5 63.75 47.5H55V60ZM55 60V72.5M51.25 67.5H62.5M82.5 60C82.5 72.4264 72.4264 82.5 60 82.5C47.5736 82.5 37.5 72.4264 37.5 60C37.5 47.5736 47.5736 37.5 60 37.5C72.4264 37.5 82.5 47.5736 82.5 60Z" stroke="#14B8A6" stroke-width="1.5" stroke-linecap="square"/>
</svg>
