<svg width="16" height="16" viewBox="0 0 16 16" fill="none" xmlns="http://www.w3.org/2000/svg">
<path d="M15.5312 7.48201L13.2596 6.83285C12.2366 6.54444 11.3047 5.99832 10.5531 5.24676C9.80159 4.4952 9.25547 3.56334 8.96706 2.54035L8.3179 0.268681C8.28525 0.189203 8.22971 0.121225 8.15834 0.0733839C8.08697 0.0255432 8.00298 0 7.91706 0C7.83114 0 7.74716 0.0255432 7.67579 0.0733839C7.60441 0.121225 7.54888 0.189203 7.51623 0.268681L6.86706 2.54035C6.57865 3.56334 6.03254 4.4952 5.28098 5.24676C4.52941 5.99832 3.59755 6.54444 2.57456 6.83285L0.302896 7.48201C0.215672 7.50677 0.138903 7.55931 0.0842394 7.63164C0.0295756 7.70398 0 7.79218 0 7.88285C0 7.97352 0.0295756 8.06171 0.0842394 8.13405C0.138903 8.20639 0.215672 8.25892 0.302896 8.28368L2.57456 8.93285C3.59755 9.22126 4.52941 9.76737 5.28098 10.5189C6.03254 11.2705 6.57865 12.2024 6.86706 13.2253L7.51623 15.497C7.54099 15.5842 7.59352 15.661 7.66586 15.7157C7.7382 15.7703 7.82639 15.7999 7.91706 15.7999C8.00773 15.7999 8.09593 15.7703 8.16827 15.7157C8.24061 15.661 8.29314 15.5842 8.3179 15.497L8.96706 13.2253C9.25547 12.2024 9.80159 11.2705 10.5531 10.5189C11.3047 9.76737 12.2366 9.22126 13.2596 8.93285L15.5312 8.28368C15.6185 8.25892 15.6952 8.20639 15.7499 8.13405C15.8045 8.06171 15.8341 7.97352 15.8341 7.88285C15.8341 7.79218 15.8045 7.70398 15.7499 7.63164C15.6952 7.55931 15.6185 7.50677 15.5312 7.48201Z" fill="#14B8A6"/>
</svg>
