<svg width="15" height="15" viewBox="0 0 15 15" fill="none" xmlns="http://www.w3.org/2000/svg">
<g clip-path="url(#clip0_523_4209)">
<path d="M6.80751 2.03995C7.06371 1.42398 7.93629 1.42398 8.19249 2.03995L9.30785 4.7216C9.41586 4.98127 9.66006 5.1587 9.94041 5.18118L12.8355 5.41327C13.5005 5.46658 13.7701 6.29646 13.2635 6.73047L11.0577 8.61991C10.8441 8.80288 10.7509 9.08996 10.8161 9.36353L11.49 12.1886C11.6448 12.8375 10.9388 13.3504 10.3695 13.0027L7.89094 11.4888C7.65093 11.3422 7.34907 11.3422 7.10906 11.4888L4.63048 13.0027C4.06115 13.3504 3.35521 12.8375 3.51 12.1886L4.18389 9.36353C4.24915 9.08996 4.15587 8.80288 3.94228 8.61991L1.73654 6.73047C1.22989 6.29646 1.49953 5.46658 2.16453 5.41327L5.05959 5.18118C5.33994 5.1587 5.58414 4.98127 5.69215 4.7216L6.80751 2.03995Z" fill="#E5E7EB"/>
<g clip-path="url(#clip1_523_4209)">
<path d="M7.5 0.375L9.48378 5.14457L14.6329 5.55737L10.7098 8.91793L11.9084 13.9426L7.5 11.25L3.09161 13.9426L4.29018 8.91793L0.367076 5.55737L5.51622 5.14457L7.5 0.375Z" fill="#14B8A6"/>
</g>
</g>
<defs>
<clipPath id="clip0_523_4209">
<rect width="15" height="15" fill="white"/>
</clipPath>
<clipPath id="clip1_523_4209">
<rect width="15" height="15" fill="white"/>
</clipPath>
</defs>
</svg>
