<svg width="40" height="40" viewBox="0 0 40 40" fill="none" xmlns="http://www.w3.org/2000/svg">
<path d="M0 20C0 8.954 8.952 0 20 0C31.044 0 40 8.954 40 20C40 31.046 31.044 40 20 40C8.952 40 0 31.046 0 20Z" fill="#FC3F1D"/>
<path d="M22.5599 11.3316H20.7119C17.3239 11.3316 15.5419 13.0476 15.5419 15.5776C15.5419 18.4376 16.7739 19.7776 19.3039 21.4956L21.3939 22.9036L15.3879 31.8776H10.8999L16.2899 23.8496C13.1899 21.6276 11.4499 19.4696 11.4499 15.8196C11.4499 11.2436 14.6399 8.11963 20.6899 8.11963H26.6959V31.8556H22.5599V11.3316Z" fill="white"/>
</svg>
