<svg width="40" height="40" fill="none" xmlns="http://www.w3.org/2000/svg"><mask id="a" style="mask-type:luminance" maskUnits="userSpaceOnUse" x="0" y="0" width="40" height="40"><path fill-rule="evenodd" clip-rule="evenodd" d="M9.941.018L11.653 0l17.801.007c.27.003.439.006.606.011.882.023 1.773.074 2.646.23a8.981 8.981 0 012.515.82 8.4 8.4 0 013.697 3.654c.412.796.67 1.612.829 2.487.157.863.21 1.743.232 2.616.013.4.017.8.019 1.201l.002.714v15.8c0 .476 0 .952-.002 1.428-.003.4-.006.8-.019 1.2-.024.873-.075 1.754-.232 2.616a8.73 8.73 0 01-.83 2.487 8.36 8.36 0 01-1.554 2.117 8.456 8.456 0 01-2.142 1.538 8.973 8.973 0 01-2.515.82c-.873.155-1.764.206-2.646.23l-2.66.02-16.854-.01a33.884 33.884 0 01-.605-.011c-.882-.022-1.773-.074-2.646-.23a8.972 8.972 0 01-2.513-.819 8.44 8.44 0 01-3.7-3.655 8.77 8.77 0 01-.829-2.487c-.157-.862-.208-1.743-.231-2.615a49.62 49.62 0 01-.018-1.2L0 28.252v-15.8c0-.474 0-.95.004-1.426.002-.4.007-.8.018-1.2.024-.874.075-1.754.231-2.617.15-.865.43-1.704.83-2.487A8.424 8.424 0 014.78 1.068a8.98 8.98 0 012.515-.82C8.168.093 9.06.042 9.941.018z" fill="#fff"/></mask><g mask="url(#a)"><path d="M-26.665-21.825h136.756V114.93H-26.665V-21.825z" fill="#19AA1E"/><path fill-rule="evenodd" clip-rule="evenodd" d="M-26.665-21.825h136.756v44.868L-26.665 1.678v-23.503z" fill="#FFB919"/><path fill-rule="evenodd" clip-rule="evenodd" d="M-26.665-1.024l47.736 7.458C27.013 2.672 34.082.608 41.711.608c10.567 0 20.064 3.958 26.976 10.902.87.879 1.69 1.795 2.465 2.748l38.939 6.083v5.407l-34.985-5.47a35.106 35.106 0 013.998 16.22c0 7.325-1.636 14.63-5.026 21.965l-.1.224-1.442 3.083h-3.398c-7.027 0-11.685 2.1-14.735 5.826-2.39 2.921-3.775 6.866-4.239 11.168l-.016.132-.067.688-.029.298-.058.585a109.469 109.469 0 00-.356 4.877l60.453-9.448v5.408l-136.756 21.369v-5.408l60.52-9.456-.025-1.214-.009-.34-.008-.178-.008-.27c-.054-1.47-.19-3.356-.406-5.643l-.042-.435-.074-.75c-.431-4.326-1.795-8.317-4.186-11.283-3.012-3.75-7.624-5.884-14.598-5.926h-3.613l-1.438-3.083c-3.456-7.409-5.13-14.789-5.13-22.19 0-9.307 3.775-18.307 10.421-24.987l.58-.567-41.984-6.564v-5.403z" fill="#fff"/><path fill-rule="evenodd" clip-rule="evenodd" d="M41.711 5.95c19.095 0 32.052 14.694 32.052 30.548 0 6.365-1.388 12.986-4.629 19.931-18.783 0-23.42 13.451-24.298 21.92l-.058.56c-.295 3.025-.469 5.45-.514 7.272l-5.089.796v-.166a97.449 97.449 0 00-.547-8.06l-.012-.148c-.812-8.45-5.35-22.174-24.324-22.174-3.245-6.945-4.633-13.566-4.633-19.931C9.66 20.644 22.621 5.95 41.711 5.95z" fill="#0073FA"/></g></svg>