<svg width="120" height="120" fill="none" xmlns="http://www.w3.org/2000/svg"><rect x=".5" y=".5" width="119" height="119" rx="59.5" stroke="#14B8A6"/><path d="M60.002 31.873c-7.255 0-13.129 5.867-13.129 13.122v14.7c-.028 1.278 1.903 1.278 1.875 0v-14.7A11.203 11.203 0 0160.002 33.75a11.196 11.196 0 0111.244 11.245v14.7c0 1.25 1.877 1.25 1.877 0v-14.7c0-7.255-5.866-13.121-13.121-13.121zm-.942 51.653v2.723H47.814v-4.704c0-1.25-1.875-1.25-1.875 0v4.704h-4.69V74.06c0-5.088 3.618-9.264 8.44-10.137v7.5c-1.086.39-1.875 1.423-1.875 2.637a2.822 2.822 0 002.81 2.81c1.541 0 2.817-1.268 2.817-2.81 0-1.21-.791-2.241-1.875-2.633v-7.68c1.268.015 1.264-1.895-.004-1.874-6.735 0-12.187 5.451-12.187 12.187v13.125c0 .518.42.938.938.938h39.374c.518 0 .938-.42.938-.938V74.061c0-6.736-5.452-12.187-12.188-12.187-1.267-.018-1.267 1.893 0 1.875v6.655a4.698 4.698 0 00-3.751 4.59v.944c0 1.251 1.876 1.251 1.876 0v-.943a2.78 2.78 0 012.81-2.809 2.788 2.788 0 012.817 2.809v.943c-.028 1.278 1.904 1.278 1.875 0v-.943c0-2.258-1.618-4.15-3.751-4.589v-6.482a10.26 10.26 0 018.437 10.137v12.188h-4.686v-4.704c0-1.25-1.875-1.25-1.875 0v4.704H60.936v-2.69l4.643-20.453a.949.949 0 00.05-.297v-4.975a8.407 8.407 0 002.808-6.271v-5.627a.937.937 0 00-.933-.941h-1.875c-2.09 0-2.866-2.166-2.866-2.166a.936.936 0 00-1.78 0s-.757 2.166-2.856 2.166H52.5a.937.937 0 00-.934.941v5.627a8.405 8.405 0 002.809 6.273v4.973c0 .07.007.14.021.207l4.664 20.51zM61.877 45c.7.963 1.954 1.87 3.752 1.87h.933v4.693a6.525 6.525 0 01-6.56 6.56 6.525 6.525 0 01-6.561-6.56V46.87h4.684c1.8 0 3.053-.906 3.752-1.87zM56.25 59.11a8.385 8.385 0 003.752.889 8.375 8.375 0 003.75-.889v3.47s-.807 2.104-3.75 2.104c-2.944 0-3.752-2.104-3.752-2.104v-3.47zm6.782 6.755l-3.03 13.345-3.03-13.343c.795.406 1.798.692 3.03.692 1.234 0 2.236-.287 3.03-.694zM50.623 73.12c.529 0 .943.412.943.941a.925.925 0 01-.943.934.918.918 0 01-.934-.934c0-.529.405-.941.934-.941z" fill="#14B8A6"/></svg>