<svg width="120" height="120" fill="none" xmlns="http://www.w3.org/2000/svg"><rect x=".5" y=".5" width="119" height="119" rx="59.5" stroke="#14B8A6"/><path d="M54 30v24H30V30h24z" fill="#fff" fill-opacity=".01"/><path d="M52.5 53.75a1.25 1.25 0 11-2.5 0 1.25 1.25 0 012.5 0zm17.5 0a1.25 1.25 0 11-2.5 0 1.25 1.25 0 012.5 0z" fill="#14B8A6"/><path d="M51.25 66.427A12.46 12.46 0 0060 70a12.46 12.46 0 008.75-3.573M82.5 60c0 12.426-10.074 22.5-22.5 22.5S37.5 72.426 37.5 60 47.574 37.5 60 37.5 82.5 47.574 82.5 60zm-30-6.25a1.25 1.25 0 11-2.5 0 1.25 1.25 0 012.5 0zm17.5 0a1.25 1.25 0 11-2.5 0 1.25 1.25 0 012.5 0z" stroke="#14B8A6" stroke-width="1.5" stroke-linecap="square"/></svg>