<svg width="15" height="15" fill="none" xmlns="http://www.w3.org/2000/svg"><g clip-path="url(#clip0_523_4209)"><path d="M6.808 2.04a.75.75 0 011.384 0l1.116 2.682a.75.75 0 00.632.46l2.896.231a.75.75 0 01.428 1.317l-2.206 1.89a.75.75 0 00-.242.744l.674 2.825a.75.75 0 01-1.12.814l-2.48-1.514a.75.75 0 00-.78 0l-2.48 1.514a.75.75 0 01-1.12-.814l.674-2.825a.75.75 0 00-.242-.744L1.737 6.73a.75.75 0 01.428-1.317l2.895-.232a.75.75 0 00.632-.46L6.808 2.04z" fill="#E5E7EB"/><g clip-path="url(#clip1_523_4209)"><path d="M7.5.375l1.984 4.77 5.149.412-3.923 3.36 1.198 5.026L7.5 11.25l-4.408 2.693L4.29 8.918.367 5.558l5.15-.413L7.5.375z" fill="#14B8A6"/></g></g><defs><clipPath id="clip0_523_4209"><path fill="#fff" d="M0 0h15v15H0z"/></clipPath><clipPath id="clip1_523_4209"><path fill="#fff" d="M0 0h15v15H0z"/></clipPath></defs></svg>